STARTFONT 2.1
FONT -Fondu-Espy Sans Bold-Medium-R-Normal--12-120-75-75-P-81-MacRoman-1
SIZE 12 75 75
FONTBOUNDINGBOX 18 16 -2 -3
COMMENT Created by Fondu from a mac NFNT/FONT resource
STARTPROPERTIES 17
FOUNDRY "Fondu"
FAMILY_NAME "Espy Sans Bold"
WEIGHT_NAME "Medium"
SLANT "R"
SETWIDTH_NAME "Normal"
ADD_STYLE_NAME ""
PIXEL_SIZE 12
POINT_SIZE 120
RESOLUTION_X 75
RESOLUTION_Y 75
SPACING "P"
AVERAGE_WIDTH 81
CHARSET_REGISTRY "MacRoman"
CHARSET_ENCODING "1"
FONT_ASCENT 13
FONT_DESCENT 3
FACE_NAME "Espy Sans Bold 12"
ENDPROPERTIES
CHARS 224
STARTCHAR space
ENCODING 32
SWIDTH 333 0
DWIDTH 4 0
BBX 0 0 -2 -3
BITMAP
ENDCHAR
STARTCHAR exclam
ENCODING 33
SWIDTH 333 0
DWIDTH 4 0
BBX 3 9 0 0
BITMAP
E0
E0
E0
E0
E0
E0
00
E0
E0
ENDCHAR
STARTCHAR quotedbl
ENCODING 34
SWIDTH 500 0
DWIDTH 6 0
BBX 5 4 0 6
BITMAP
D8
D8
D8
48
ENDCHAR
STARTCHAR numbersign
ENCODING 35
SWIDTH 916 0
DWIDTH 11 0
BBX 10 9 0 0
BITMAP
1980
1980
7FC0
3300
3300
3300
FF80
6600
6600
ENDCHAR
STARTCHAR dollar
ENCODING 36
SWIDTH 666 0
DWIDTH 8 0
BBX 7 11 0 -1
BITMAP
10
7E
C0
E0
F8
7C
1E
0E
06
FC
10
ENDCHAR
STARTCHAR percent
ENCODING 37
SWIDTH 1083 0
DWIDTH 13 0
BBX 12 9 0 0
BITMAP
70C0
D9C0
DB80
7300
0600
0CE0
1DB0
39B0
30E0
ENDCHAR
STARTCHAR ampersand
ENCODING 38
SWIDTH 1000 0
DWIDTH 12 0
BBX 11 9 0 0
BITMAP
3E00
7300
7700
3E00
3CE0
77C0
E380
F7C0
7EE0
ENDCHAR
STARTCHAR quotesingle
ENCODING 39
SWIDTH 250 0
DWIDTH 3 0
BBX 2 4 0 6
BITMAP
C0
C0
C0
40
ENDCHAR
STARTCHAR parenleft
ENCODING 40
SWIDTH 500 0
DWIDTH 6 0
BBX 5 12 0 -2
BITMAP
18
30
70
60
E0
E0
E0
E0
60
70
30
18
ENDCHAR
STARTCHAR parenright
ENCODING 41
SWIDTH 500 0
DWIDTH 6 0
BBX 5 12 0 -2
BITMAP
C0
60
70
30
38
38
38
38
30
70
60
C0
ENDCHAR
STARTCHAR asterisk
ENCODING 42
SWIDTH 500 0
DWIDTH 6 0
BBX 5 6 0 4
BITMAP
20
A8
70
70
A8
20
ENDCHAR
STARTCHAR plus
ENCODING 43
SWIDTH 500 0
DWIDTH 6 0
BBX 5 5 0 2
BITMAP
20
20
F8
20
20
ENDCHAR
STARTCHAR comma
ENCODING 44
SWIDTH 333 0
DWIDTH 4 0
BBX 3 4 0 -2
BITMAP
E0
E0
20
C0
ENDCHAR
STARTCHAR hyphen
ENCODING 45
SWIDTH 500 0
DWIDTH 6 0
BBX 5 1 0 4
BITMAP
F8
ENDCHAR
STARTCHAR period
ENCODING 46
SWIDTH 333 0
DWIDTH 4 0
BBX 3 2 0 0
BITMAP
E0
E0
ENDCHAR
STARTCHAR slash
ENCODING 47
SWIDTH 500 0
DWIDTH 6 0
BBX 6 10 0 -1
BITMAP
0C
0C
18
18
30
30
60
60
C0
C0
ENDCHAR
STARTCHAR zero
ENCODING 48
SWIDTH 750 0
DWIDTH 9 0
BBX 8 9 0 0
BITMAP
7E
E7
E7
E7
E7
E7
E7
E7
7E
ENDCHAR
STARTCHAR one
ENCODING 49
SWIDTH 750 0
DWIDTH 9 0
BBX 5 9 1 0
BITMAP
38
F8
38
38
38
38
38
38
38
ENDCHAR
STARTCHAR two
ENCODING 50
SWIDTH 750 0
DWIDTH 9 0
BBX 8 9 0 0
BITMAP
7E
C7
07
0E
1C
38
70
F0
FF
ENDCHAR
STARTCHAR three
ENCODING 51
SWIDTH 750 0
DWIDTH 9 0
BBX 8 9 0 0
BITMAP
7E
C7
07
06
1E
07
07
C7
7E
ENDCHAR
STARTCHAR four
ENCODING 52
SWIDTH 750 0
DWIDTH 9 0
BBX 8 9 0 0
BITMAP
0E
1E
2E
4E
8E
FF
0E
0E
0E
ENDCHAR
STARTCHAR five
ENCODING 53
SWIDTH 750 0
DWIDTH 9 0
BBX 8 9 0 0
BITMAP
FE
C0
C0
FE
0F
07
07
87
7E
ENDCHAR
STARTCHAR six
ENCODING 54
SWIDTH 750 0
DWIDTH 9 0
BBX 8 9 0 0
BITMAP
3C
60
E0
FE
E7
E7
E7
E7
7E
ENDCHAR
STARTCHAR seven
ENCODING 55
SWIDTH 750 0
DWIDTH 9 0
BBX 8 9 0 0
BITMAP
FF
07
0E
1C
1C
38
38
38
38
ENDCHAR
STARTCHAR eight
ENCODING 56
SWIDTH 750 0
DWIDTH 9 0
BBX 8 9 0 0
BITMAP
7E
E7
E7
E7
7E
E7
E7
E7
7E
ENDCHAR
STARTCHAR nine
ENCODING 57
SWIDTH 750 0
DWIDTH 9 0
BBX 8 9 0 0
BITMAP
7E
E7
E7
E7
E7
7F
07
06
3C
ENDCHAR
STARTCHAR colon
ENCODING 58
SWIDTH 333 0
DWIDTH 4 0
BBX 3 7 0 0
BITMAP
E0
E0
00
00
00
E0
E0
ENDCHAR
STARTCHAR semicolon
ENCODING 59
SWIDTH 333 0
DWIDTH 4 0
BBX 3 9 0 -2
BITMAP
E0
E0
00
00
00
E0
E0
20
C0
ENDCHAR
STARTCHAR less
ENCODING 60
SWIDTH 583 0
DWIDTH 7 0
BBX 6 5 0 2
BITMAP
0C
30
C0
30
0C
ENDCHAR
STARTCHAR equal
ENCODING 61
SWIDTH 583 0
DWIDTH 7 0
BBX 6 3 0 3
BITMAP
FC
00
FC
ENDCHAR
STARTCHAR greater
ENCODING 62
SWIDTH 583 0
DWIDTH 7 0
BBX 6 5 0 2
BITMAP
C0
30
0C
30
C0
ENDCHAR
STARTCHAR question
ENCODING 63
SWIDTH 583 0
DWIDTH 7 0
BBX 6 9 0 0
BITMAP
F8
1C
1C
38
70
70
00
70
70
ENDCHAR
STARTCHAR at
ENCODING 64
SWIDTH 1000 0
DWIDTH 12 0
BBX 11 8 0 -1
BITMAP
3F80
60C0
CE60
DB60
DB60
CDC0
6000
3F00
ENDCHAR
STARTCHAR A
ENCODING 65
SWIDTH 916 0
DWIDTH 11 0
BBX 10 9 0 0
BITMAP
0E00
1E00
1F00
3700
3700
6380
7F80
C3C0
C3C0
ENDCHAR
STARTCHAR B
ENCODING 66
SWIDTH 833 0
DWIDTH 10 0
BBX 9 9 0 0
BITMAP
FE00
E700
E700
E600
FF00
E780
E380
E380
FF00
ENDCHAR
STARTCHAR C
ENCODING 67
SWIDTH 750 0
DWIDTH 9 0
BBX 8 9 0 0
BITMAP
1F
70
F0
E0
E0
E0
F0
70
1F
ENDCHAR
STARTCHAR D
ENCODING 68
SWIDTH 833 0
DWIDTH 10 0
BBX 9 9 0 0
BITMAP
FC00
E700
E380
E380
E380
E380
E380
E700
FC00
ENDCHAR
STARTCHAR E
ENCODING 69
SWIDTH 666 0
DWIDTH 8 0
BBX 7 9 0 0
BITMAP
FE
E0
E0
E0
FC
E0
E0
E0
FE
ENDCHAR
STARTCHAR F
ENCODING 70
SWIDTH 666 0
DWIDTH 8 0
BBX 7 9 0 0
BITMAP
FE
E0
E0
E0
FC
E0
E0
E0
E0
ENDCHAR
STARTCHAR G
ENCODING 71
SWIDTH 916 0
DWIDTH 11 0
BBX 10 9 0 0
BITMAP
1F80
7000
F000
E000
E3C0
E1C0
F1C0
71C0
1FC0
ENDCHAR
STARTCHAR H
ENCODING 72
SWIDTH 833 0
DWIDTH 10 0
BBX 9 9 0 0
BITMAP
E380
E380
E380
E380
FF80
E380
E380
E380
E380
ENDCHAR
STARTCHAR I
ENCODING 73
SWIDTH 333 0
DWIDTH 4 0
BBX 3 9 0 0
BITMAP
E0
E0
E0
E0
E0
E0
E0
E0
E0
ENDCHAR
STARTCHAR J
ENCODING 74
SWIDTH 583 0
DWIDTH 7 0
BBX 6 9 0 0
BITMAP
1C
1C
1C
1C
1C
1C
1C
1C
F8
ENDCHAR
STARTCHAR K
ENCODING 75
SWIDTH 833 0
DWIDTH 10 0
BBX 10 9 0 0
BITMAP
E300
E600
EC00
F800
FC00
FE00
EF00
E780
E3C0
ENDCHAR
STARTCHAR L
ENCODING 76
SWIDTH 666 0
DWIDTH 8 0
BBX 7 9 0 0
BITMAP
E0
E0
E0
E0
E0
E0
E0
E0
FE
ENDCHAR
STARTCHAR M
ENCODING 77
SWIDTH 1083 0
DWIDTH 13 0
BBX 12 9 0 0
BITMAP
F0F0
F0F0
F9F0
B970
B970
9E70
9E70
8E70
8C70
ENDCHAR
STARTCHAR N
ENCODING 78
SWIDTH 750 0
DWIDTH 9 0
BBX 8 9 0 0
BITMAP
C1
E1
F1
F9
BD
9F
8F
87
83
ENDCHAR
STARTCHAR O
ENCODING 79
SWIDTH 916 0
DWIDTH 11 0
BBX 10 9 0 0
BITMAP
3F00
7380
E1C0
E1C0
E1C0
E1C0
E1C0
7380
3F00
ENDCHAR
STARTCHAR P
ENCODING 80
SWIDTH 833 0
DWIDTH 10 0
BBX 9 9 0 0
BITMAP
FE00
E700
E380
E380
E700
FE00
E000
E000
E000
ENDCHAR
STARTCHAR Q
ENCODING 81
SWIDTH 916 0
DWIDTH 11 0
BBX 10 11 0 -2
BITMAP
3F00
7380
E1C0
E1C0
E1C0
E1C0
E1C0
7380
3F00
0700
03C0
ENDCHAR
STARTCHAR R
ENCODING 82
SWIDTH 833 0
DWIDTH 10 0
BBX 9 9 0 0
BITMAP
FE00
E700
E700
E700
EE00
FC00
EE00
E700
E380
ENDCHAR
STARTCHAR S
ENCODING 83
SWIDTH 666 0
DWIDTH 8 0
BBX 7 9 0 0
BITMAP
7E
E0
E0
F8
7C
3E
0E
0E
FC
ENDCHAR
STARTCHAR T
ENCODING 84
SWIDTH 833 0
DWIDTH 10 0
BBX 9 9 0 0
BITMAP
FF80
1C00
1C00
1C00
1C00
1C00
1C00
1C00
1C00
ENDCHAR
STARTCHAR U
ENCODING 85
SWIDTH 750 0
DWIDTH 9 0
BBX 8 9 0 0
BITMAP
E3
E3
E3
E3
E3
E3
E3
76
3C
ENDCHAR
STARTCHAR V
ENCODING 86
SWIDTH 833 0
DWIDTH 10 0
BBX 10 9 0 0
BITMAP
F0C0
F0C0
7180
7980
3900
3B00
3B00
1E00
1E00
ENDCHAR
STARTCHAR W
ENCODING 87
SWIDTH 1250 0
DWIDTH 15 0
BBX 15 9 0 0
BITMAP
F18E
F18E
718C
73DC
3BD8
3AD8
3EF0
1C70
1C70
ENDCHAR
STARTCHAR X
ENCODING 88
SWIDTH 833 0
DWIDTH 10 0
BBX 9 9 0 0
BITMAP
F180
F180
7B00
3E00
1C00
3E00
6F00
C780
C780
ENDCHAR
STARTCHAR Y
ENCODING 89
SWIDTH 750 0
DWIDTH 9 0
BBX 9 9 0 0
BITMAP
E180
F180
7300
7B00
3E00
1C00
1C00
1C00
1C00
ENDCHAR
STARTCHAR Z
ENCODING 90
SWIDTH 666 0
DWIDTH 8 0
BBX 7 9 0 0
BITMAP
FE
0E
1E
3C
38
78
F0
E0
FE
ENDCHAR
STARTCHAR bracketleft
ENCODING 91
SWIDTH 416 0
DWIDTH 5 0
BBX 4 12 0 -2
BITMAP
F0
C0
C0
C0
C0
C0
C0
C0
C0
C0
C0
F0
ENDCHAR
STARTCHAR backslash
ENCODING 92
SWIDTH 500 0
DWIDTH 6 0
BBX 6 10 0 -1
BITMAP
C0
C0
60
60
30
30
18
18
0C
0C
ENDCHAR
STARTCHAR bracketright
ENCODING 93
SWIDTH 416 0
DWIDTH 5 0
BBX 4 12 0 -2
BITMAP
F0
30
30
30
30
30
30
30
30
30
30
F0
ENDCHAR
STARTCHAR asciicircum
ENCODING 94
SWIDTH 500 0
DWIDTH 6 0
BBX 5 6 0 3
BITMAP
20
20
70
50
D8
88
ENDCHAR
STARTCHAR underscore
ENCODING 95
SWIDTH 583 0
DWIDTH 7 0
BBX 7 1 0 -1
BITMAP
FE
ENDCHAR
STARTCHAR grave
ENCODING 96
SWIDTH 416 0
DWIDTH 5 0
BBX 4 2 0 7
BITMAP
E0
30
ENDCHAR
STARTCHAR a
ENCODING 97
SWIDTH 750 0
DWIDTH 9 0
BBX 8 7 0 0
BITMAP
7E
0F
07
7F
E7
E7
7B
ENDCHAR
STARTCHAR b
ENCODING 98
SWIDTH 750 0
DWIDTH 9 0
BBX 8 9 0 0
BITMAP
E0
E0
EE
F7
E7
E7
E7
EE
FC
ENDCHAR
STARTCHAR c
ENCODING 99
SWIDTH 666 0
DWIDTH 8 0
BBX 7 7 0 0
BITMAP
3E
70
E0
E0
E0
70
3E
ENDCHAR
STARTCHAR d
ENCODING 100
SWIDTH 750 0
DWIDTH 9 0
BBX 8 9 0 0
BITMAP
07
07
3F
77
E7
E7
E7
EF
7B
ENDCHAR
STARTCHAR e
ENCODING 101
SWIDTH 750 0
DWIDTH 9 0
BBX 8 7 0 0
BITMAP
3E
67
E7
FF
E0
F0
3F
ENDCHAR
STARTCHAR f
ENCODING 102
SWIDTH 583 0
DWIDTH 7 0
BBX 6 9 0 0
BITMAP
3C
70
FC
70
70
70
70
70
70
ENDCHAR
STARTCHAR g
ENCODING 103
SWIDTH 750 0
DWIDTH 9 0
BBX 8 10 0 -3
BITMAP
3F
77
E7
E7
E7
EF
77
07
0E
7C
ENDCHAR
STARTCHAR h
ENCODING 104
SWIDTH 750 0
DWIDTH 9 0
BBX 8 9 0 0
BITMAP
E0
E0
EE
F7
E7
E7
E7
E7
E7
ENDCHAR
STARTCHAR i
ENCODING 105
SWIDTH 333 0
DWIDTH 4 0
BBX 3 9 0 0
BITMAP
E0
00
E0
E0
E0
E0
E0
E0
E0
ENDCHAR
STARTCHAR j
ENCODING 106
SWIDTH 333 0
DWIDTH 4 0
BBX 5 12 -2 -3
BITMAP
38
00
38
38
38
38
38
38
38
38
38
F0
ENDCHAR
STARTCHAR k
ENCODING 107
SWIDTH 750 0
DWIDTH 9 0
BBX 8 9 0 0
BITMAP
E0
E0
E7
EE
FC
FC
EE
E7
E7
ENDCHAR
STARTCHAR l
ENCODING 108
SWIDTH 333 0
DWIDTH 4 0
BBX 3 9 0 0
BITMAP
E0
E0
E0
E0
E0
E0
E0
E0
E0
ENDCHAR
STARTCHAR m
ENCODING 109
SWIDTH 1166 0
DWIDTH 14 0
BBX 13 7 0 0
BITMAP
EEF0
F7B8
E738
E738
E738
E738
E738
ENDCHAR
STARTCHAR n
ENCODING 110
SWIDTH 750 0
DWIDTH 9 0
BBX 8 7 0 0
BITMAP
EE
F7
E7
E7
E7
E7
E7
ENDCHAR
STARTCHAR o
ENCODING 111
SWIDTH 833 0
DWIDTH 10 0
BBX 9 7 0 0
BITMAP
3E00
7700
E380
E380
E380
7700
3E00
ENDCHAR
STARTCHAR p
ENCODING 112
SWIDTH 750 0
DWIDTH 9 0
BBX 8 10 0 -3
BITMAP
EE
F7
E7
E7
E7
EE
FC
E0
E0
E0
ENDCHAR
STARTCHAR q
ENCODING 113
SWIDTH 750 0
DWIDTH 9 0
BBX 8 10 0 -3
BITMAP
3F
77
E7
E7
E7
EF
77
07
07
07
ENDCHAR
STARTCHAR r
ENCODING 114
SWIDTH 583 0
DWIDTH 7 0
BBX 6 7 0 0
BITMAP
EC
FC
E0
E0
E0
E0
E0
ENDCHAR
STARTCHAR s
ENCODING 115
SWIDTH 583 0
DWIDTH 7 0
BBX 6 7 0 0
BITMAP
7C
E0
F0
78
3C
1C
F8
ENDCHAR
STARTCHAR t
ENCODING 116
SWIDTH 583 0
DWIDTH 7 0
BBX 6 9 0 0
BITMAP
70
70
FC
70
70
70
70
70
3C
ENDCHAR
STARTCHAR u
ENCODING 117
SWIDTH 750 0
DWIDTH 9 0
BBX 8 7 0 0
BITMAP
E7
E7
E7
E7
E7
EF
77
ENDCHAR
STARTCHAR v
ENCODING 118
SWIDTH 833 0
DWIDTH 10 0
BBX 9 7 0 0
BITMAP
F180
F180
7100
7B00
3A00
3E00
1C00
ENDCHAR
STARTCHAR w
ENCODING 119
SWIDTH 1083 0
DWIDTH 13 0
BBX 12 7 0 0
BITMAP
E730
E730
E730
77A0
77A0
39C0
39C0
ENDCHAR
STARTCHAR x
ENCODING 120
SWIDTH 750 0
DWIDTH 9 0
BBX 8 7 0 0
BITMAP
E3
F3
7E
3C
7E
CF
C7
ENDCHAR
STARTCHAR y
ENCODING 121
SWIDTH 833 0
DWIDTH 10 0
BBX 9 10 0 -3
BITMAP
F180
F180
7900
3B00
3E00
1E00
0C00
1C00
7800
7000
ENDCHAR
STARTCHAR z
ENCODING 122
SWIDTH 583 0
DWIDTH 7 0
BBX 6 7 0 0
BITMAP
FC
1C
38
70
E0
E0
FC
ENDCHAR
STARTCHAR braceleft
ENCODING 123
SWIDTH 416 0
DWIDTH 5 0
BBX 4 12 0 -2
BITMAP
30
60
60
60
60
C0
60
60
60
60
60
30
ENDCHAR
STARTCHAR bar
ENCODING 124
SWIDTH 416 0
DWIDTH 5 0
BBX 2 12 1 -2
BITMAP
C0
C0
C0
C0
C0
C0
C0
C0
C0
C0
C0
C0
ENDCHAR
STARTCHAR braceright
ENCODING 125
SWIDTH 416 0
DWIDTH 5 0
BBX 4 12 0 -2
BITMAP
C0
60
60
60
60
30
60
60
60
60
60
C0
ENDCHAR
STARTCHAR asciitilde
ENCODING 126
SWIDTH 750 0
DWIDTH 9 0
BBX 8 3 0 5
BITMAP
79
BD
9E
ENDCHAR
STARTCHAR char007f
ENCODING 127
SWIDTH 0 0
DWIDTH 0 0
BBX 0 0 -2 -3
BITMAP
ENDCHAR
STARTCHAR Adieresis
ENCODING 128
SWIDTH 916 0
DWIDTH 11 0
BBX 10 11 0 0
BITMAP
1B00
0000
0E00
1E00
1F00
3700
3700
6380
7F80
C3C0
C3C0
ENDCHAR
STARTCHAR Aring
ENCODING 129
SWIDTH 916 0
DWIDTH 11 0
BBX 10 12 0 0
BITMAP
0C00
1200
0C00
0E00
1E00
1F00
3700
3700
6380
7F80
C3C0
C3C0
ENDCHAR
STARTCHAR Ccedilla
ENCODING 130
SWIDTH 750 0
DWIDTH 9 0
BBX 8 11 0 -2
BITMAP
1F
70
F0
E0
E0
E0
F0
70
1F
04
18
ENDCHAR
STARTCHAR Eacute
ENCODING 131
SWIDTH 666 0
DWIDTH 8 0
BBX 7 12 0 0
BITMAP
1C
30
00
FE
E0
E0
E0
FC
E0
E0
E0
FE
ENDCHAR
STARTCHAR Ntilde
ENCODING 132
SWIDTH 750 0
DWIDTH 9 0
BBX 8 12 0 0
BITMAP
1A
2C
00
C1
E1
F1
F9
BD
9F
8F
87
83
ENDCHAR
STARTCHAR Odieresis
ENCODING 133
SWIDTH 916 0
DWIDTH 11 0
BBX 10 11 0 0
BITMAP
1B00
0000
3F00
7380
E1C0
E1C0
E1C0
E1C0
E1C0
7380
3F00
ENDCHAR
STARTCHAR Udieresis
ENCODING 134
SWIDTH 750 0
DWIDTH 9 0
BBX 8 11 0 0
BITMAP
36
00
E3
E3
E3
E3
E3
E3
E3
76
3C
ENDCHAR
STARTCHAR aacute
ENCODING 135
SWIDTH 750 0
DWIDTH 9 0
BBX 8 10 0 0
BITMAP
0E
18
00
7E
0F
07
7F
E7
E7
7B
ENDCHAR
STARTCHAR agrave
ENCODING 136
SWIDTH 750 0
DWIDTH 9 0
BBX 8 10 0 0
BITMAP
38
0C
00
7E
0F
07
7F
E7
E7
7B
ENDCHAR
STARTCHAR acircumflex
ENCODING 137
SWIDTH 750 0
DWIDTH 9 0
BBX 8 11 0 0
BITMAP
08
1C
22
00
7E
0F
07
7F
E7
E7
7B
ENDCHAR
STARTCHAR adieresis
ENCODING 138
SWIDTH 750 0
DWIDTH 9 0
BBX 8 9 0 0
BITMAP
36
00
7E
0F
07
7F
E7
E7
7B
ENDCHAR
STARTCHAR atilde
ENCODING 139
SWIDTH 750 0
DWIDTH 9 0
BBX 8 10 0 0
BITMAP
1A
2C
00
7E
0F
07
7F
E7
E7
7B
ENDCHAR
STARTCHAR aring
ENCODING 140
SWIDTH 750 0
DWIDTH 9 0
BBX 8 10 0 0
BITMAP
18
24
18
7E
0F
07
7F
E7
E7
7B
ENDCHAR
STARTCHAR ccedilla
ENCODING 141
SWIDTH 666 0
DWIDTH 8 0
BBX 7 9 0 -2
BITMAP
3E
70
E0
E0
E0
70
3E
08
18
ENDCHAR
STARTCHAR eacute
ENCODING 142
SWIDTH 750 0
DWIDTH 9 0
BBX 8 10 0 0
BITMAP
0E
18
00
3E
67
E7
FF
E0
F0
3F
ENDCHAR
STARTCHAR egrave
ENCODING 143
SWIDTH 750 0
DWIDTH 9 0
BBX 8 10 0 0
BITMAP
38
0C
00
3E
67
E7
FF
E0
F0
3F
ENDCHAR
STARTCHAR ecircumflex
ENCODING 144
SWIDTH 750 0
DWIDTH 9 0
BBX 8 11 0 0
BITMAP
08
1C
22
00
3E
67
E7
FF
E0
F0
3F
ENDCHAR
STARTCHAR edieresis
ENCODING 145
SWIDTH 750 0
DWIDTH 9 0
BBX 8 9 0 0
BITMAP
36
00
3E
67
E7
FF
E0
F0
3F
ENDCHAR
STARTCHAR iacute
ENCODING 146
SWIDTH 333 0
DWIDTH 4 0
BBX 4 10 0 0
BITMAP
70
C0
00
E0
E0
E0
E0
E0
E0
E0
ENDCHAR
STARTCHAR igrave
ENCODING 147
SWIDTH 333 0
DWIDTH 4 0
BBX 4 10 -1 0
BITMAP
E0
30
00
70
70
70
70
70
70
70
ENDCHAR
STARTCHAR icircumflex
ENCODING 148
SWIDTH 333 0
DWIDTH 4 0
BBX 5 11 -1 0
BITMAP
20
70
88
00
70
70
70
70
70
70
70
ENDCHAR
STARTCHAR idieresis
ENCODING 149
SWIDTH 333 0
DWIDTH 4 0
BBX 5 9 -1 0
BITMAP
D8
00
70
70
70
70
70
70
70
ENDCHAR
STARTCHAR ntilde
ENCODING 150
SWIDTH 750 0
DWIDTH 9 0
BBX 8 10 0 0
BITMAP
1A
2C
00
EE
F7
E7
E7
E7
E7
E7
ENDCHAR
STARTCHAR oacute
ENCODING 151
SWIDTH 833 0
DWIDTH 10 0
BBX 9 10 0 0
BITMAP
0E00
1800
0000
3E00
7700
E380
E380
E380
7700
3E00
ENDCHAR
STARTCHAR ograve
ENCODING 152
SWIDTH 833 0
DWIDTH 10 0
BBX 9 10 0 0
BITMAP
3800
0C00
0000
3E00
7700
E380
E380
E380
7700
3E00
ENDCHAR
STARTCHAR ocircumflex
ENCODING 153
SWIDTH 833 0
DWIDTH 10 0
BBX 9 11 0 0
BITMAP
0800
1C00
2200
0000
3E00
7700
E380
E380
E380
7700
3E00
ENDCHAR
STARTCHAR odieresis
ENCODING 154
SWIDTH 833 0
DWIDTH 10 0
BBX 9 9 0 0
BITMAP
3600
0000
3E00
7700
E380
E380
E380
7700
3E00
ENDCHAR
STARTCHAR otilde
ENCODING 155
SWIDTH 833 0
DWIDTH 10 0
BBX 9 10 0 0
BITMAP
1A00
2C00
0000
3E00
7700
E380
E380
E380
7700
3E00
ENDCHAR
STARTCHAR uacute
ENCODING 156
SWIDTH 750 0
DWIDTH 9 0
BBX 8 10 0 0
BITMAP
0E
18
00
E7
E7
E7
E7
E7
EF
77
ENDCHAR
STARTCHAR ugrave
ENCODING 157
SWIDTH 750 0
DWIDTH 9 0
BBX 8 10 0 0
BITMAP
70
18
00
E7
E7
E7
E7
E7
EF
77
ENDCHAR
STARTCHAR ucircumflex
ENCODING 158
SWIDTH 750 0
DWIDTH 9 0
BBX 8 11 0 0
BITMAP
08
1C
22
00
E7
E7
E7
E7
E7
EF
77
ENDCHAR
STARTCHAR udieresis
ENCODING 159
SWIDTH 750 0
DWIDTH 9 0
BBX 8 9 0 0
BITMAP
36
00
E7
E7
E7
E7
E7
EF
77
ENDCHAR
STARTCHAR dagger
ENCODING 160
SWIDTH 916 0
DWIDTH 11 0
BBX 10 8 0 0
BITMAP
6180
9240
7F80
1200
1200
7F80
9240
6180
ENDCHAR
STARTCHAR degree
ENCODING 161
SWIDTH 416 0
DWIDTH 5 0
BBX 4 4 0 6
BITMAP
60
90
90
60
ENDCHAR
STARTCHAR cent
ENCODING 162
SWIDTH 583 0
DWIDTH 7 0
BBX 6 8 0 -1
BITMAP
10
7C
F0
D0
D0
F0
7C
10
ENDCHAR
STARTCHAR sterling
ENCODING 163
SWIDTH 750 0
DWIDTH 9 0
BBX 8 9 0 0
BITMAP
3E
70
70
FC
70
70
70
70
FF
ENDCHAR
STARTCHAR section
ENCODING 164
SWIDTH 833 0
DWIDTH 10 0
BBX 9 9 0 0
BITMAP
0800
1C00
1C00
6B00
F780
6B00
1C00
1C00
0800
ENDCHAR
STARTCHAR bullet
ENCODING 165
SWIDTH 583 0
DWIDTH 7 0
BBX 6 5 0 2
BITMAP
78
FC
FC
FC
78
ENDCHAR
STARTCHAR paragraph
ENCODING 166
SWIDTH 666 0
DWIDTH 8 0
BBX 7 9 0 0
BITMAP
7E
F6
F6
F6
76
16
16
16
16
ENDCHAR
STARTCHAR germandbls
ENCODING 167
SWIDTH 916 0
DWIDTH 11 0
BBX 10 9 0 0
BITMAP
7E00
E300
E700
EE00
EF00
E780
E3C0
E1C0
EF80
ENDCHAR
STARTCHAR registered
ENCODING 168
SWIDTH 666 0
DWIDTH 8 0
BBX 7 8 0 0
BITMAP
38
44
B2
AA
B2
AA
44
38
ENDCHAR
STARTCHAR copyright
ENCODING 169
SWIDTH 666 0
DWIDTH 8 0
BBX 7 8 0 0
BITMAP
38
44
9A
A2
A2
9A
44
38
ENDCHAR
STARTCHAR trademark
ENCODING 170
SWIDTH 833 0
DWIDTH 10 0
BBX 9 4 0 5
BITMAP
E880
4D80
4A80
4A80
ENDCHAR
STARTCHAR acute
ENCODING 171
SWIDTH 416 0
DWIDTH 5 0
BBX 4 2 0 8
BITMAP
70
C0
ENDCHAR
STARTCHAR dieresis
ENCODING 172
SWIDTH 500 0
DWIDTH 6 0
BBX 5 1 0 9
BITMAP
D8
ENDCHAR
STARTCHAR notequal
ENCODING 173
SWIDTH 583 0
DWIDTH 7 0
BBX 6 5 0 2
BITMAP
10
FC
20
FC
40
ENDCHAR
STARTCHAR AE
ENCODING 174
SWIDTH 1166 0
DWIDTH 14 0
BBX 13 9 0 0
BITMAP
0FF8
1B80
1B80
3380
33F0
7F80
6380
C380
C3F8
ENDCHAR
STARTCHAR Oslash
ENCODING 175
SWIDTH 916 0
DWIDTH 11 0
BBX 10 9 0 0
BITMAP
3F40
7380
E3C0
E5C0
E9C0
F1C0
E1C0
7380
BF00
ENDCHAR
STARTCHAR infinity
ENCODING 176
SWIDTH 833 0
DWIDTH 10 0
BBX 9 4 0 3
BITMAP
7300
8C80
9880
6700
ENDCHAR
STARTCHAR plusminus
ENCODING 177
SWIDTH 500 0
DWIDTH 6 0
BBX 5 6 0 1
BITMAP
20
20
F8
20
20
F8
ENDCHAR
STARTCHAR lessequal
ENCODING 178
SWIDTH 583 0
DWIDTH 7 0
BBX 6 7 0 0
BITMAP
0C
30
C0
30
0C
00
FC
ENDCHAR
STARTCHAR greaterequal
ENCODING 179
SWIDTH 583 0
DWIDTH 7 0
BBX 6 7 0 0
BITMAP
C0
30
0C
30
C0
00
FC
ENDCHAR
STARTCHAR yen
ENCODING 180
SWIDTH 833 0
DWIDTH 10 0
BBX 9 9 0 0
BITMAP
E180
F180
7300
3B00
FF80
1C00
FF80
1C00
1C00
ENDCHAR
STARTCHAR mu
ENCODING 181
SWIDTH 750 0
DWIDTH 9 0
BBX 8 10 0 -3
BITMAP
E7
E7
E7
E7
E7
EF
F7
C0
C0
C0
ENDCHAR
STARTCHAR partialdiff
ENCODING 182
SWIDTH 750 0
DWIDTH 9 0
BBX 8 9 0 0
BITMAP
3C
0E
07
3F
67
E7
E7
E6
7C
ENDCHAR
STARTCHAR summation
ENCODING 183
SWIDTH 666 0
DWIDTH 8 0
BBX 7 10 0 -1
BITMAP
FE
E2
F0
78
38
30
60
C2
FE
FE
ENDCHAR
STARTCHAR product
ENCODING 184
SWIDTH 1000 0
DWIDTH 12 0
BBX 11 10 0 -1
BITMAP
FFE0
71C0
71C0
71C0
71C0
71C0
71C0
71C0
71C0
FBE0
ENDCHAR
STARTCHAR pi
ENCODING 185
SWIDTH 1000 0
DWIDTH 12 0
BBX 11 7 0 0
BITMAP
FFC0
7380
7380
7380
73E0
73C0
F380
ENDCHAR
STARTCHAR integral
ENCODING 186
SWIDTH 416 0
DWIDTH 5 0
BBX 4 14 0 -3
BITMAP
30
60
60
60
60
60
60
60
60
60
60
60
60
C0
ENDCHAR
STARTCHAR ordfeminine
ENCODING 187
SWIDTH 500 0
DWIDTH 6 0
BBX 5 6 0 3
BITMAP
78
D8
D8
68
00
F8
ENDCHAR
STARTCHAR ordmasculine
ENCODING 188
SWIDTH 500 0
DWIDTH 6 0
BBX 5 6 0 3
BITMAP
70
D8
D8
70
00
F8
ENDCHAR
STARTCHAR Omega
ENCODING 189
SWIDTH 916 0
DWIDTH 11 0
BBX 10 9 0 0
BITMAP
3F00
7380
E1C0
E1C0
E1C0
6180
3300
9240
F3C0
ENDCHAR
STARTCHAR ae
ENCODING 190
SWIDTH 1166 0
DWIDTH 14 0
BBX 13 7 0 0
BITMAP
7DF0
0F38
0738
7FF8
E700
E780
79F8
ENDCHAR
STARTCHAR oslash
ENCODING 191
SWIDTH 833 0
DWIDTH 10 0
BBX 9 9 0 -1
BITMAP
0080
3F00
7700
E780
EB80
F380
7700
7E00
8000
ENDCHAR
STARTCHAR questiondown
ENCODING 192
SWIDTH 583 0
DWIDTH 7 0
BBX 6 9 0 -2
BITMAP
38
38
00
38
38
70
E0
E0
7C
ENDCHAR
STARTCHAR exclamdown
ENCODING 193
SWIDTH 333 0
DWIDTH 4 0
BBX 3 9 0 -2
BITMAP
E0
E0
00
E0
E0
E0
E0
E0
E0
ENDCHAR
STARTCHAR logicalnot
ENCODING 194
SWIDTH 666 0
DWIDTH 8 0
BBX 7 3 0 2
BITMAP
FE
02
02
ENDCHAR
STARTCHAR radical
ENCODING 195
SWIDTH 666 0
DWIDTH 8 0
BBX 7 11 0 -1
BITMAP
02
02
06
04
04
CC
68
28
38
10
10
ENDCHAR
STARTCHAR florin
ENCODING 196
SWIDTH 833 0
DWIDTH 10 0
BBX 10 11 -1 -1
BITMAP
03C0
0700
0700
1FC0
0E00
0E00
1C00
1C00
3800
3800
F000
ENDCHAR
STARTCHAR approxequal
ENCODING 197
SWIDTH 583 0
DWIDTH 7 0
BBX 6 5 0 2
BITMAP
74
B8
00
74
B8
ENDCHAR
STARTCHAR Delta
ENCODING 198
SWIDTH 916 0
DWIDTH 11 0
BBX 10 10 0 0
BITMAP
0C00
0C00
1E00
1E00
2700
2700
4380
4380
81C0
FFC0
ENDCHAR
STARTCHAR guillemotleft
ENCODING 199
SWIDTH 666 0
DWIDTH 8 0
BBX 7 5 0 1
BITMAP
36
6C
D8
6C
36
ENDCHAR
STARTCHAR guillemotright
ENCODING 200
SWIDTH 666 0
DWIDTH 8 0
BBX 7 5 0 1
BITMAP
D8
6C
36
6C
D8
ENDCHAR
STARTCHAR ellipsis
ENCODING 201
SWIDTH 916 0
DWIDTH 11 0
BBX 10 2 0 0
BITMAP
CCC0
CCC0
ENDCHAR
STARTCHAR nbspace
ENCODING 202
SWIDTH 333 0
DWIDTH 4 0
BBX 0 0 -2 -3
BITMAP
ENDCHAR
STARTCHAR Agrave
ENCODING 203
SWIDTH 916 0
DWIDTH 11 0
BBX 10 12 0 0
BITMAP
1C00
0600
0000
0E00
1E00
1F00
3700
3700
6380
7F80
C3C0
C3C0
ENDCHAR
STARTCHAR Atilde
ENCODING 204
SWIDTH 916 0
DWIDTH 11 0
BBX 10 12 0 0
BITMAP
1A00
2C00
0000
0E00
1E00
1F00
3700
3700
6380
7F80
C3C0
C3C0
ENDCHAR
STARTCHAR Otilde
ENCODING 205
SWIDTH 916 0
DWIDTH 11 0
BBX 10 12 0 0
BITMAP
0D00
1600
0000
3F00
7380
E1C0
E1C0
E1C0
E1C0
E1C0
7380
3F00
ENDCHAR
STARTCHAR OE
ENCODING 206
SWIDTH 1166 0
DWIDTH 14 0
BBX 13 9 0 0
BITMAP
3FF8
7380
E380
E380
E3F0
E380
E380
7380
3FF8
ENDCHAR
STARTCHAR oe
ENCODING 207
SWIDTH 1250 0
DWIDTH 15 0
BBX 14 7 0 0
BITMAP
3EF8
779C
E39C
E3FC
E380
77C0
3EFC
ENDCHAR
STARTCHAR endash
ENCODING 208
SWIDTH 666 0
DWIDTH 8 0
BBX 7 1 0 4
BITMAP
FE
ENDCHAR
STARTCHAR emdash
ENCODING 209
SWIDTH 1250 0
DWIDTH 15 0
BBX 14 1 0 4
BITMAP
FFFC
ENDCHAR
STARTCHAR quotedblleft
ENCODING 210
SWIDTH 500 0
DWIDTH 6 0
BBX 5 4 0 6
BITMAP
48
90
D8
D8
ENDCHAR
STARTCHAR quotedblright
ENCODING 211
SWIDTH 500 0
DWIDTH 6 0
BBX 5 4 0 6
BITMAP
D8
D8
48
90
ENDCHAR
STARTCHAR quoteleft
ENCODING 212
SWIDTH 250 0
DWIDTH 3 0
BBX 2 4 0 6
BITMAP
40
80
C0
C0
ENDCHAR
STARTCHAR quoteright
ENCODING 213
SWIDTH 250 0
DWIDTH 3 0
BBX 2 4 0 6
BITMAP
C0
C0
40
80
ENDCHAR
STARTCHAR divide
ENCODING 214
SWIDTH 666 0
DWIDTH 8 0
BBX 7 5 0 2
BITMAP
10
00
FE
00
10
ENDCHAR
STARTCHAR lozenge
ENCODING 215
SWIDTH 666 0
DWIDTH 8 0
BBX 7 11 0 -1
BITMAP
10
10
38
28
6C
C6
6C
28
38
10
10
ENDCHAR
STARTCHAR ydieresis
ENCODING 216
SWIDTH 833 0
DWIDTH 10 0
BBX 9 12 0 -3
BITMAP
1B00
0000
F180
F180
7900
3B00
3E00
1E00
0C00
1C00
7800
7000
ENDCHAR
STARTCHAR Ydieresis
ENCODING 217
SWIDTH 833 0
DWIDTH 10 0
BBX 9 11 0 0
BITMAP
3600
0000
E180
F180
7300
7B00
3E00
1C00
1C00
1C00
1C00
ENDCHAR
STARTCHAR fraction
ENCODING 218
SWIDTH 500 0
DWIDTH 6 0
BBX 6 10 0 -1
BITMAP
0C
0C
18
18
30
30
60
60
C0
C0
ENDCHAR
STARTCHAR currency
ENCODING 219
SWIDTH 666 0
DWIDTH 8 0
BBX 7 7 0 0
BITMAP
BA
6C
C6
82
C6
6C
BA
ENDCHAR
STARTCHAR guilsinglleft
ENCODING 220
SWIDTH 416 0
DWIDTH 5 0
BBX 4 5 0 1
BITMAP
30
60
C0
60
30
ENDCHAR
STARTCHAR guilsinglright
ENCODING 221
SWIDTH 416 0
DWIDTH 5 0
BBX 4 5 0 1
BITMAP
C0
60
30
60
C0
ENDCHAR
STARTCHAR fi
ENCODING 222
SWIDTH 833 0
DWIDTH 10 0
BBX 9 9 0 0
BITMAP
3F80
7000
FF80
7380
7380
7380
7380
7380
7380
ENDCHAR
STARTCHAR fl
ENCODING 223
SWIDTH 833 0
DWIDTH 10 0
BBX 9 9 0 0
BITMAP
3F80
7380
FB80
7380
7380
7380
7380
7380
7380
ENDCHAR
STARTCHAR daggerdbl
ENCODING 224
SWIDTH 833 0
DWIDTH 10 0
BBX 7 7 1 0
BITMAP
FE
FE
FE
FE
FE
FE
FE
ENDCHAR
STARTCHAR periodcentered
ENCODING 225
SWIDTH 250 0
DWIDTH 3 0
BBX 2 2 0 4
BITMAP
C0
C0
ENDCHAR
STARTCHAR quotesinglbase
ENCODING 226
SWIDTH 250 0
DWIDTH 3 0
BBX 2 4 0 -2
BITMAP
C0
C0
40
80
ENDCHAR
STARTCHAR quotedblbase
ENCODING 227
SWIDTH 500 0
DWIDTH 6 0
BBX 5 4 0 -2
BITMAP
D8
D8
48
90
ENDCHAR
STARTCHAR perthousand
ENCODING 228
SWIDTH 1416 0
DWIDTH 17 0
BBX 16 8 0 0
BITMAP
70E0
D9C0
DB80
7700
0EEE
1DBB
39BB
70EE
ENDCHAR
STARTCHAR Acircumflex
ENCODING 229
SWIDTH 916 0
DWIDTH 11 0
BBX 10 13 0 0
BITMAP
0400
0E00
1100
0000
0E00
1E00
1F00
3700
3700
6380
7F80
C3C0
C3C0
ENDCHAR
STARTCHAR Ecircumflex
ENCODING 230
SWIDTH 666 0
DWIDTH 8 0
BBX 7 13 0 0
BITMAP
10
38
44
00
FE
E0
E0
E0
FC
E0
E0
E0
FE
ENDCHAR
STARTCHAR Aacute
ENCODING 231
SWIDTH 916 0
DWIDTH 11 0
BBX 10 12 0 0
BITMAP
0E00
1800
0000
0E00
1E00
1F00
3700
3700
6380
7F80
C3C0
C3C0
ENDCHAR
STARTCHAR Edieresis
ENCODING 232
SWIDTH 666 0
DWIDTH 8 0
BBX 7 11 0 0
BITMAP
6C
00
FE
E0
E0
E0
FC
E0
E0
E0
FE
ENDCHAR
STARTCHAR Egrave
ENCODING 233
SWIDTH 666 0
DWIDTH 8 0
BBX 7 12 0 0
BITMAP
70
18
00
FE
E0
E0
E0
FC
E0
E0
E0
FE
ENDCHAR
STARTCHAR Iacute
ENCODING 234
SWIDTH 333 0
DWIDTH 4 0
BBX 4 12 0 0
BITMAP
70
C0
00
E0
E0
E0
E0
E0
E0
E0
E0
E0
ENDCHAR
STARTCHAR Icircumflex
ENCODING 235
SWIDTH 333 0
DWIDTH 4 0
BBX 5 13 -1 0
BITMAP
20
70
88
00
70
70
70
70
70
70
70
70
70
ENDCHAR
STARTCHAR Idieresis
ENCODING 236
SWIDTH 333 0
DWIDTH 4 0
BBX 5 11 -1 0
BITMAP
D8
00
70
70
70
70
70
70
70
70
70
ENDCHAR
STARTCHAR Igrave
ENCODING 237
SWIDTH 333 0
DWIDTH 4 0
BBX 4 12 -1 0
BITMAP
E0
30
00
70
70
70
70
70
70
70
70
70
ENDCHAR
STARTCHAR Oacute
ENCODING 238
SWIDTH 916 0
DWIDTH 11 0
BBX 10 12 0 0
BITMAP
0700
0C00
0000
3F00
7380
E1C0
E1C0
E1C0
E1C0
E1C0
7380
3F00
ENDCHAR
STARTCHAR Ocircumflex
ENCODING 239
SWIDTH 916 0
DWIDTH 11 0
BBX 10 13 0 0
BITMAP
0400
0E00
1100
0000
3F00
7380
E1C0
E1C0
E1C0
E1C0
E1C0
7380
3F00
ENDCHAR
STARTCHAR apple
ENCODING 240
SWIDTH 833 0
DWIDTH 10 0
BBX 9 10 0 0
BITMAP
0400
0C00
0800
7700
FF80
FE00
FE00
FF80
7F00
3600
ENDCHAR
STARTCHAR Ograve
ENCODING 241
SWIDTH 916 0
DWIDTH 11 0
BBX 10 12 0 0
BITMAP
3800
0C00
0000
3F00
7380
E1C0
E1C0
E1C0
E1C0
E1C0
7380
3F00
ENDCHAR
STARTCHAR Uacute
ENCODING 242
SWIDTH 750 0
DWIDTH 9 0
BBX 8 12 0 0
BITMAP
0E
18
00
E3
E3
E3
E3
E3
E3
E3
76
3C
ENDCHAR
STARTCHAR Ucircumflex
ENCODING 243
SWIDTH 750 0
DWIDTH 9 0
BBX 8 13 0 0
BITMAP
08
1C
22
00
E3
E3
E3
E3
E3
E3
E3
76
3C
ENDCHAR
STARTCHAR Ugrave
ENCODING 244
SWIDTH 750 0
DWIDTH 9 0
BBX 8 12 0 0
BITMAP
38
0C
00
E3
E3
E3
E3
E3
E3
E3
76
3C
ENDCHAR
STARTCHAR dotlessi
ENCODING 245
SWIDTH 333 0
DWIDTH 4 0
BBX 3 7 0 0
BITMAP
E0
E0
E0
E0
E0
E0
E0
ENDCHAR
STARTCHAR circumflex
ENCODING 246
SWIDTH 416 0
DWIDTH 5 0
BBX 4 2 0 7
BITMAP
60
90
ENDCHAR
STARTCHAR tilde
ENCODING 247
SWIDTH 500 0
DWIDTH 6 0
BBX 5 2 0 7
BITMAP
68
B0
ENDCHAR
STARTCHAR macron
ENCODING 248
SWIDTH 416 0
DWIDTH 5 0
BBX 4 1 0 7
BITMAP
F0
ENDCHAR
STARTCHAR breve
ENCODING 249
SWIDTH 416 0
DWIDTH 5 0
BBX 4 2 0 7
BITMAP
90
60
ENDCHAR
STARTCHAR dotaccent
ENCODING 250
SWIDTH 250 0
DWIDTH 3 0
BBX 2 1 0 8
BITMAP
C0
ENDCHAR
STARTCHAR ring
ENCODING 251
SWIDTH 416 0
DWIDTH 5 0
BBX 4 3 0 6
BITMAP
60
90
60
ENDCHAR
STARTCHAR cedilla
ENCODING 252
SWIDTH 333 0
DWIDTH 4 0
BBX 3 3 0 -2
BITMAP
40
20
C0
ENDCHAR
STARTCHAR hungarumlaut
ENCODING 253
SWIDTH 416 0
DWIDTH 5 0
BBX 4 2 0 7
BITMAP
50
A0
ENDCHAR
STARTCHAR ogonek
ENCODING 254
SWIDTH 333 0
DWIDTH 4 0
BBX 3 3 0 -2
BITMAP
40
80
60
ENDCHAR
STARTCHAR caron
ENCODING 255
SWIDTH 333 0
DWIDTH 4 0
BBX 3 2 0 7
BITMAP
A0
40
ENDCHAR
ENDFONT
